<?xml version="1.0" encoding="UTF-8"?>
<svg width="96" height="96" viewBox="0 0 96 96" fill="none" xmlns="http://www.w3.org/2000/svg">
  <rect width="96" height="96" fill="#F3F4F6"/>
  <path d="M48 44C50.2091 44 52 42.2091 52 40C52 37.7909 50.2091 36 48 36C45.7909 36 44 37.7909 44 40C44 42.2091 45.7909 44 48 44Z" fill="#9CA3AF"/>
  <path fill-rule="evenodd" clip-rule="evenodd" d="M36 28C31.5817 28 28 31.5817 28 36V60C28 64.4183 31.5817 68 36 68H60C64.4183 68 68 64.4183 68 60V36C68 31.5817 64.4183 28 60 28H36ZM32 36C32 33.7909 33.7909 32 36 32H60C62.2091 32 64 33.7909 64 36V52L58.2929 46.2929C57.1054 45.1054 55.1054 45.1054 53.9179 46.2929L48 52.2101L42.0821 46.2929C40.8946 45.1054 38.8946 45.1054 37.7071 46.2929L32 52V36Z" fill="#9CA3AF"/>
</svg>
